<?xml version="1.0" encoding="UTF-8"?>
<svg id="Layer_1" xmlns="http://www.w3.org/2000/svg" version="1.1" viewBox="0 0 20 20">
  <!-- Generator: Adobe Illustrator 29.6.1, SVG Export Plug-In . SVG Version: 2.1.1 Build 9)  -->
  <defs>
    <style>
      .st0 {
        fill: #fff;
      }
    </style>
  </defs>
  <path class="st0" d="M4.1,5.5s0,0,.1,0c3.6,0,7.1,0,10.7,0,.1,0,.2,0,.3,0,0,0,0,0,0,0-1.9,1.9-3.8,3.8-5.7,5.7-1.9-1.9-3.8-3.8-5.7-5.7.1,0,.2,0,.3,0ZM3.4,13.5c0-1.6,0-3.2,0-4.8s0-1.5,0-2.3c0-.1,0-.2,0-.3,0,0,0,0,0,0,1.3,1.3,2.6,2.6,3.8,3.9-1.3,1.3-2.6,2.6-3.9,3.9,0-.1,0-.2,0-.3ZM15,14.3c0,0-.1,0-.2,0-3.5,0-7.1,0-10.6,0-.1,0-.2,0-.4,0,1.3-1.3,2.6-2.6,3.9-3.9.3.3.6.6.8.9.2.2.5.5.7.7.2.2.3.2.5,0,.5-.5,1-1,1.5-1.5,0,0,0,0,0,0,1.3,1.3,2.6,2.6,3.9,3.9,0,0-.1,0-.2,0ZM15.8,13.5c0,.1,0,.2,0,.3-1.3-1.3-2.6-2.6-3.9-3.9,1.3-1.3,2.6-2.6,3.9-3.9,0,0,0,.2,0,.2,0,0,0,0,0,.1,0,2.4,0,4.7,0,7.1Z"/>
</svg>