<?xml version="1.0" encoding="utf-8"?>
<!-- Generator: Adobe Illustrator 19.0.0, SVG Export Plug-In . SVG Version: 6.00 Build 0)  -->
<svg version="1.1" id="Layer_1" xmlns="http://www.w3.org/2000/svg" xmlns:xlink="http://www.w3.org/1999/xlink" x="0px" y="0px"
	 viewBox="28 -28 101 101" style="enable-background:new 28 -28 101 101;" xml:space="preserve">
<style type="text/css">
	.st0{fill:#FFFFFF;}
</style>
<g>
	<g>
		<path class="st0" d="M123.4-0.6c-3.5-6.9-8.7-12.9-14.9-17.5c-0.9-0.7-2.2-0.5-2.9,0.4c-0.7,0.9-0.5,2.2,0.4,2.9
			c5.7,4.2,10.5,9.8,13.7,16.1c3.4,6.6,5.1,13.7,5.1,21.2c0,25.6-20.8,46.4-46.4,46.4S32,48.1,32,22.5s20.9-46.4,46.5-46.4
			c1.1,0,2.1-0.9,2.1-2.1c0-1.1-0.9-2.1-2.1-2.1C50.7-28,28-5.3,28,22.5S50.7,73,78.5,73S129,50.3,129,22.5
			C129,14.5,127.1,6.5,123.4-0.6z"/>
	</g>
	<g>
		<g>
			<path class="st0" d="M64.6,47c-5.5,0-9.9-4.5-9.9-9.9V6.5c0-5.5,4.5-9.9,9.9-9.9c5.5,0,9.9,4.5,9.9,9.9v30.6
				C74.6,42.6,70.1,47,64.6,47z M64.6,0.7c-3.2,0-5.7,2.6-5.7,5.7V37c0,3.2,2.6,5.7,5.7,5.7c3.1,0,5.7-2.6,5.7-5.7V6.5
				C70.4,3.3,67.8,0.7,64.6,0.7z"/>
		</g>
		<g>
			<path class="st0" d="M92.4,47c-5.5,0-9.9-4.5-9.9-9.9V6.5c0-5.5,4.5-9.9,9.9-9.9c5.5,0,9.9,4.5,9.9,9.9V30c0,1.2-0.9,2.1-2.1,2.1
				s-2.1-0.9-2.1-2.1V6.5c0-3.2-2.6-5.7-5.7-5.7c-3.2,0-5.7,2.6-5.7,5.7v30.6c0,3.2,2.6,5.7,5.7,5.7c3.2,0,5.7-2.6,5.7-5.7
				c0-1.2,0.9-2.1,2.1-2.1s2.1,0.9,2.1,2.1C102.3,42.6,97.8,47,92.4,47z"/>
		</g>
	</g>
</g>
</svg>
