<svg xmlns="http://www.w3.org/2000/svg" width="101" height="101" viewBox="0 0 101 101" fill="none"><path d="M95.4129 27.3876C91.8777 20.5295 86.7187 14.4731 80.4979 9.87254C79.5867 9.1977 78.2986 9.38953 77.6238 10.3042C76.949 11.2188 77.1408 12.5034 78.0554 13.1782C83.7727 17.4054 88.5103 22.972 91.7612 29.2716C95.1662 35.8762 96.8927 43.0185 96.8927 50.5034C96.8927 76.0823 76.0823 96.8927 50.5034 96.8927C24.9246 96.8927 4.1107 76.0789 4.1107 50.5C4.1107 24.9211 24.9211 4.1107 50.5 4.1107C51.6339 4.1107 52.5554 3.18922 52.5554 2.05535C52.5554 0.921483 51.6339 0 50.5 0C22.6534 0 0 22.6534 0 50.5C0 78.3466 22.6534 101 50.5 101C78.3466 101 101 78.3466 101 50.5C101 42.4704 99.068 34.4751 95.4129 27.3876Z" fill="white"></path><path d="M37.5786 27.0518C36.9346 27.4183 36.5372 28.1 36.5372 28.84V73.9447C36.5372 75.0785 37.4587 76 38.5926 76C39.7265 76 40.6479 75.0785 40.6479 73.9447V32.454L71.0774 50.5685L48.7015 64.9868C47.7457 65.5999 47.4717 66.8743 48.0883 67.8266C48.7049 68.7823 49.9758 69.0563 50.9281 68.4397L76.0925 52.2264C76.692 51.8428 77.0482 51.1748 77.0345 50.4623C77.0208 49.7497 76.6406 49.0955 76.0308 48.7323L39.6442 27.0724C39.0105 26.6955 38.2192 26.6853 37.5786 27.0518Z" fill="white"></path></svg>