<?xml version="1.0" encoding="UTF-8"?>
<svg id="Layer_1" data-name="Layer 1" xmlns="http://www.w3.org/2000/svg" viewBox="0 0 98.463 166.661">
  <defs>
    <style>
      .cls-1 {
        fill: #e03b36;
      }

      .cls-2 {
        fill: #ae9264;
      }

      .cls-3 {
        fill: #fff;
        stroke: #221f1f;
        stroke-miterlimit: 10;
        stroke-width: .296px;
      }

      .cls-4 {
        fill: #e53732;
      }

      .cls-5 {
        fill: #ab9062;
      }

      .cls-6 {
        fill: #f7f4ed;
      }

      .cls-7 {
        fill: #ad8e5a;
      }

      .cls-8 {
        fill: #ad905f;
      }

      .cls-9 {
        fill: #ad905c;
      }

      .cls-10 {
        fill: #519774;
      }

      .cls-11 {
        fill: #ae9162;
      }

      .cls-12 {
        fill: #ad8e5c;
      }

      .cls-13 {
        fill: #ae905f;
      }

      .cls-14 {
        fill: #1b954a;
      }
    </style>
  </defs>
  <path class="cls-4" d="M44.02,129.941c-3.503,0-6.903-.01-10.304.009-.668.004-.58-.421-.58-.826,0-3.111.005-6.221.005-9.332,0-5.136.017-10.271-.032-15.406-.007-.689-.226-1.449-.567-2.051-1.731-3.055-4.279-5.405-6.856-7.72-3.534-3.174-7.072-6.337-9.688-10.374-2.613-4.033-4.168-8.454-4.723-13.198-.302-2.584-.351-5.203-.42-7.808-.056-2.116.653-4.029,1.928-5.715.315-.416.697-.8,1.11-1.119.789-.609,1.677-1.085,2.681-.603.999.479,1.236,1.457,1.22,2.458-.147,8.929,3.499,16.177,9.875,22.183,3.07,2.892,6.276,5.639,9.35,8.526,2.846,2.674,5.325,5.657,6.368,9.522.415,1.538.646,3.173.657,4.766.06,8.569.024,17.138.02,25.707,0,.289-.025.578-.045.982Z"/>
  <path class="cls-4" d="M53.471,129.948c0-.58,0-1.042,0-1.504,0-8.04.14-16.084-.051-24.12-.133-5.616,1.903-10.203,5.772-14.028,3.081-3.045,6.388-5.861,9.569-8.806,2.873-2.659,5.481-5.55,7.417-8.982,2.415-4.281,3.518-8.909,3.56-13.808.004-.465.028-.941.134-1.391.375-1.591,1.531-2.139,2.992-1.381,1.843.957,2.847,2.625,3.331,4.54.347,1.374.502,2.833.496,4.253-.024,5.529-.834,10.913-3.202,15.988-2.007,4.3-5.058,7.775-8.457,11.005-2.8,2.66-5.586,5.339-8.284,8.101-.864.884-1.463,2.039-2.11,3.114-.208.346-.248.833-.249,1.256-.013,8.246-.019,16.492.008,24.737.003.782-.163,1.061-1.009,1.047-3.254-.052-6.509-.021-9.918-.021Z"/>
  <path class="cls-14" d="M24.778,44.517c.163-.011.327-.021.49-.032,1.549.122,3.098.244,4.646.365,3.111.589,5.75,2.112,8.118,4.148,4.295,3.694,7.116,8.432,9.447,13.499.84,1.827,1.567,3.705,2.394,5.676.883-2.062,1.677-4.052,2.579-5.992,1.7-3.656,3.734-7.103,6.546-10.041,3.616-3.777,8.096-5.571,13.256-5.851,2.518-.136,5.036-.28,7.549-.486,2.178-.178,4.136-.988,5.947-2.214.513-.347,1.158-.559,1.773-.679.704-.138,1.121.311,1.162.999.081,1.354-.153,2.539-1.28,3.547-3.766,3.368-8.27,4.841-13.16,5.541-2.398.344-4.808.813-7.115,1.537-3.515,1.104-6.068,3.564-8.135,6.545-2.785,4.016-4.559,8.505-6.046,13.117-.737,2.286-1.366,4.607-2.045,6.911-.09.304-.187.606-.283.914-1.04-2.772-2.012-5.534-3.107-8.246-2.017-4.995-4.532-9.717-7.977-13.895-3.431-4.161-7.525-7.372-12.834-8.791-3.648-.975-7.316-.908-10.969-.042-1.365.324-2.696.79-4.043,1.192-.588.109-1.175.218-1.924.357.669-.79,1.229-1.451,1.789-2.111,0,0-.001.001-.001.001.125-.107.249-.214.374-.321,0,0,.012-.009.012-.009.886-.493,1.949-.743,2.436-1.782,0,0-.001.001-.001.001,1.105-.4,2.204-.813,3.009-1.734,0,0,.019-.006.018-.006.874-.355,1.748-.71,2.621-1.065,0,0,.001,0,.001,0,1.505-.268,3.011-.533,4.514-.814.091-.017.158-.156.237-.239Z"/>
  <path class="cls-1" d="M62.945,36.081c.179-.38.313-.626.414-.884,1.09-2.795,2.38-5.476,4.345-7.785,2.225-2.614,5.087-3.86,8.475-4.017,1.376-.064,2.778-.019,4.119-.277,1.177-.227,2.29-.798,3.422-1.238.522-.203,1.122-.827,1.555-.223.283.396.132,1.145.069,1.725-.026.244-.299.487-.506.681-2.001,1.877-4.451,2.735-7.103,3.201-1.755.308-3.552.579-5.211,1.191-2.778,1.024-4.339,3.383-5.634,5.896-1.455,2.824-2.403,5.841-3.216,8.902-.066.248-.153.49-.304.971-.183-.462-.294-.711-.381-.967-1.5-4.431-3.309-8.706-6.413-12.296-4.467-5.165-10.24-6.465-16.503-3.752-.321.139-.644.272-1.1.264.604-.587,1.176-1.212,1.818-1.753,1.913-1.615,4.072-2.781,6.555-3.214,4.235-.737,7.57.942,10.295,4.048,2.27,2.587,3.74,5.645,4.985,8.821.073.186.165.365.319.705Z"/>
  <path class="cls-7" d="M67.154,139.223c0,2.217-.002,4.435,0,6.652.003,2.348.028,4.697.007,7.045-.005.611.116.901.815.894,5.078-.047,10.156-.052,15.233-.107.304-.003.708-.255.89-.515,1.343-1.912,2.888-3.628,4.79-4.989.61-.437,1.301-.838,2.016-1.024.487-.127,1.28-.033,1.572.29.361.401.594,1.22.438,1.719-.325,1.037-.942,1.983-1.385,2.859-.458-.555-.757-1.256-1.25-1.442-.838-.316-1.566.228-2.139.88-.058.066-.121.128-.179.195-1.375,1.591-1.35,1.794.358,2.97.576.397,1.149.8,1.786,1.243-.246.491-.458.933-.687,1.367-.229.434-.475.858-.754,1.358-1.037-.628-2.017-1.206-2.979-1.811-.496-.312-.915-.409-1.414.044-.249.226-.666.372-1.008.373-5.841.021-11.682-.002-17.523.031-.729.004-1.104-.264-1.252-.906-.177-.764-.435-1.54-.429-2.309.033-3.843.138-7.686.229-11.528.005-.224.044-.497.176-.66.747-.932,1.527-1.837,2.295-2.752.131.041.262.082.394.123Z"/>
  <path class="cls-12" d="M17.93,159.074v-11.857h2.726c.039.472.072.87.119,1.448.979-.965,2.015-1.544,3.322-1.474,1.298.07,2.275.682,3.078,1.778.209-.197.396-.363.571-.54,1.228-1.238,2.972-1.643,4.529-.92,1.539.715,2.362,1.966,2.364,3.7.003,2.377-.018,4.754.014,7.13.008.623-.187.8-.802.795-2.125-.018-2.122.004-2.122-2.124,0-1.848-.003-3.697-.018-5.545-.011-1.287-.751-2.232-1.803-2.34-.973-.1-1.902.717-2.136,1.947-.109.572-.146,1.164-.15,1.748-.017,2.051-.007,4.102-.007,6.296-.815,0-1.571.058-2.307-.04-.185-.025-.429-.545-.434-.841-.034-2.229-.011-4.46-.014-6.689-.002-1.482-.555-2.241-1.66-2.214-1.176.029-2.586.926-2.514,2.372.12,2.426.033,4.862.033,7.37h-2.789Z"/>
  <path class="cls-3" d="M31.869,4.116c.895-1.153,2.117-1.876,3.396-2.528,1.432-.73,3-1.176,4.552-1.039,1.283.113,2.695.541,3.727,1.28,1.351.969,2.537,2.272,3.51,3.634.929,1.301,1.493,2.862,2.22,4.307.125.248.262.489.53.987.502-1.033.932-1.828,1.283-2.657.954-2.252,2.373-4.143,4.428-5.469,1.361-.878,2.924-1.205,4.557-1.289,1.391-.071,2.779-.281,4.157-.498.408-.064.762-.423,1.172-.534.437-.118.911-.102,1.369-.145-.08.543.036,1.346-.276,1.582-1.056.799-2.202,1.564-3.433,2.021-1.121.416-2.418.324-3.599.613-2.499.611-4.639,1.763-6.025,4.096-1.266,2.13-1.924,4.483-2.763,6.775-.155.423-.326.841-.71,1.269-.36-.889-.74-1.771-1.075-2.669-.773-2.074-1.785-4.035-3.156-5.759-1.688-2.122-3.587-4.15-6.38-4.667-2.152-.398-4.379-.315-6.457.652-.292.136-.619.199-.93.295-.032-.086-.064-.171-.096-.257Z"/>
  <path class="cls-13" d="M37.035,151.034c-.02-1.485,1.022-2.84,2.633-3.478,1.58-.626,3.186-.723,4.813-.151,1.632.574,2.87,2.04,2.571,4.083-.186,1.271-.238,2.568-.258,3.855-.013.846.034,1.723,1.153,2.003.412.103.316.963-.121,1.341-.66.569-1.651.608-2.358.08-.279-.208-.54-.441-.87-.713-1.288,1.13-2.807,1.541-4.477,1.446-2.327-.133-4.127-2.501-3.517-4.671.44-1.566,1.77-2.007,3.144-2.311,1.084-.24,2.193-.369,3.28-.599.67-.142,1.213-.477,1.18-1.296-.033-.811-.54-1.177-1.26-1.363-1.579-.408-2.421-.033-3.221,1.42-.084.152-.283.331-.435.338-.752.035-1.507.016-2.257.016ZM44.164,153.613c-1.062.094-2.088.127-3.089.299-.492.084-1,.351-1.395.667-.819.656-.77,1.378.049,2.044.978.796,2.201.878,3.274.22,1.003-.615,1.44-1.776,1.161-3.23Z"/>
  <path class="cls-8" d="M5.451,147.492c.163-.072.19-.093.217-.094.613-.032,1.322-.258,1.805-.022.319.156.315.975.517,1.725.382-.445.654-.865,1.022-1.17,1.371-1.133,2.887-1.187,4.448-.446,1.461.693,1.905,1.958,1.894,3.48-.016,2.289-.024,4.579.009,6.868.011.789-.165,1.155-1.073,1.099-1.495-.092-1.483.3-1.473-1.554.011-2.113.015-4.227-.005-6.34-.011-1.206-.496-1.686-1.709-1.727-1.04-.035-2.023.252-2.72,1.013-.352.385-.557,1.033-.574,1.571-.066,2.052-.055,4.108-.017,6.162.013.705-.216.968-.91.867-.287-.042-.607.059-.873-.027-.217-.07-.533-.321-.535-.494-.031-3.633-.023-7.267-.023-10.91Z"/>
  <path class="cls-8" d="M53.044,161.044c-.38-2.297.061-3.983,2.191-4.939-.208-.28-.305-.507-.476-.627-1.687-1.183-1.702-3.123-.748-4.795,1.24-2.175,3.128-3.45,5.697-3.562,1.268-.055,2.006.869,1.715,2.129-.291,1.26-.953,1.655-2.149,1.328-.831-.227-1.689-.407-2.421.251-.429.386-1.088.805-1.136,1.262-.087.827.94,1.774,1.866,1.785,1.188.014,2.378-.167,3.566-.274.222-.02.441-.087.662-.133-.054,1.402-.761,2.086-2.037,2.512-2.262.757-4.142,2.158-5.703,3.972-.28.325-.587.626-1.026,1.092Z"/>
  <path class="cls-13" d="M95.264,158.137c0-.957.01-1.914-.002-2.871-.05-3.957-.131-7.914-.133-11.871,0-.588.257-1.241.576-1.751.551-.882,1.243-1.675,2.068-2.45.067,1.241.188,2.481.19,3.722.006,3.223-.081,6.446-.05,9.669.022,2.256-1.221,3.898-2.403,5.593-.083-.014-.165-.027-.248-.041Z"/>
  <path class="cls-9" d="M0,147.38h2.689v11.686H0v-11.686Z"/>
  <path class="cls-2" d="M98.463,163.766c.014.598-.334.917-.956,1.184-1.141.489-2.222,1.121-3.361,1.711-.011-.114-.058-.227-.022-.27.673-.794.803-1.425-.056-2.32-.655-.682-.206-1.692.332-2.427.747-1.021,1.745-1.627,3.068-1.568.765.034.962.53.836,1.141-.113.552-.345,1.064-1.145.822-.364-.11-.837-.104-1.183.038-.321.131-.539.513-.803.785.318.302.599.796.961.864.727.137,1.498.041,2.33.041Z"/>
  <path class="cls-11" d="M2.722,143.199v2.669H.018v-2.669h2.704Z"/>
  <path class="cls-5" d="M89.157,142.923c.607-.69,1.024-1.163,1.487-1.689.723.778,1.333,1.435,1.991,2.144.009-.059.02.013-.011.051q-1.253,1.506-2.624.148c-.245-.241-.546-.426-.843-.653Z"/>
  <path class="cls-10" d="M11.558,50.485c-.56.661-1.12,1.321-1.789,2.111.749-.139,1.337-.248,1.924-.357-1.013.479-2.026.958-3.039,1.437-.045-.061-.089-.122-.134-.183.889-1.12,1.785-2.234,3.037-3.008Z"/>
  <path class="cls-10" d="M24.778,44.517c-.078.082-.146.222-.237.239-1.503.28-3.009.545-4.514.814,1.487-.786,3.109-.962,4.751-1.052Z"/>
  <path class="cls-10" d="M29.915,44.851c-1.549-.122-3.098-.243-4.646-.365,1.549.122,3.098.244,4.646.365Z"/>
  <path class="cls-10" d="M17.386,46.641c-.805.921-1.904,1.333-3.009,1.734,1.003-.578,2.006-1.156,3.009-1.734Z"/>
  <path class="cls-10" d="M14.379,48.374c-.487,1.039-1.55,1.289-2.436,1.782.812-.594,1.624-1.188,2.436-1.782Z"/>
  <path class="cls-10" d="M20.026,45.57c-.874.355-1.748.71-2.621,1.065.874-.355,1.748-.71,2.621-1.065Z"/>
  <path class="cls-10" d="M11.931,50.165c-.125.107-.249.214-.374.321.125-.107.249-.214.374-.321Z"/>
  <path class="cls-6" d="M44.164,153.613c.279,1.454-.158,2.615-1.161,3.23-1.074.658-2.296.576-3.274-.22-.819-.666-.868-1.388-.049-2.044.395-.316.903-.583,1.395-.667,1.002-.172,2.027-.205,3.089-.299Z"/>
</svg>