<?xml version="1.0" encoding="UTF-8"?>
<svg id="Layer_1" xmlns="http://www.w3.org/2000/svg" version="1.1" viewBox="0 0 20 20">
  <!-- Generator: Adobe Illustrator 29.6.1, SVG Export Plug-In . SVG Version: 2.1.1 Build 9)  -->
  <defs>
    <style>
      .st0 {
        fill: #fff;
      }
    </style>
  </defs>
  <path class="st0" d="M14.9,13.6l-1.6,1.5c0,0-.2.1-.3.2-.1,0-.2,0-.3.1,0,0,0,0,0,0,0,0,0,0-.2,0-.1,0-.4,0-.7,0-.3,0-.7-.2-1.2-.4s-1-.5-1.6-.9c-.6-.4-1.3-.9-1.9-1.6-.5-.5-1-1.1-1.4-1.5-.4-.5-.6-.9-.9-1.4-.2-.4-.4-.8-.5-1.1-.1-.3-.2-.6-.2-.9,0-.2,0-.4,0-.6,0-.1,0-.2,0-.2,0-.1,0-.2.1-.3,0-.1.1-.2.2-.3l1.6-1.6c.1-.1.2-.2.4-.2s.2,0,.3,0c0,0,.1.1.2.2l1.3,2.4c0,.1,0,.3,0,.4,0,.1,0,.3-.2.4l-.6.6s0,0,0,0c0,0,0,0,0,0,0,.2.1.4.2.6,0,.2.2.4.4.7.2.3.5.6.8.9.4.4.7.6.9.8.3.2.5.3.7.4.2,0,.3.2.4.2h.1s0,0,0,0c0,0,0,0,0,0l.7-.7c.1-.1.3-.2.5-.2s.2,0,.3,0h0l2.3,1.3c.2.1.3.2.3.4,0,.2,0,.3-.2.5Z"/>
</svg>