<?xml version="1.0" encoding="UTF-8"?>
<svg id="Layer_1" xmlns="http://www.w3.org/2000/svg" version="1.1" viewBox="0 0 20 20">
  <!-- Generator: Adobe Illustrator 29.6.1, SVG Export Plug-In . SVG Version: 2.1.1 Build 9)  -->
  <defs>
    <style>
      .st0 {
        fill: #fff;
      }
    </style>
  </defs>
  <path class="st0" d="M15.3,9.5h.4c-.3-2.7-2.4-4.9-5.2-5.2v.4c0,.3-.2.5-.5.5s-.5-.2-.5-.5v-.4c-2.7.2-4.9,2.4-5.2,5.2h.4c.3,0,.5.2.5.5s-.2.5-.5.5h-.4c.2,2.8,2.4,5,5.2,5.2v-.5c0-.3.2-.5.5-.5s.5.2.5.5v.5c2.8-.2,5-2.4,5.2-5.2h-.4c-.3,0-.5-.2-.5-.5s.2-.5.5-.5ZM13.6,7.2l-3,3.2s0,0,0,0c0,.3-.3.6-.6.6s-.5-.2-.6-.5l-2.5-1.9c-.2-.1-.2-.4,0-.5.1-.2.4-.2.5,0l2.5,1.9s0,0,.1,0,0,0,0,0l3-3.2c.1-.2.4-.2.5,0,.2.1.2.4,0,.5Z"/>
</svg>